<svg width="798" height="866" viewBox="0 0 798 866" fill="none" xmlns="http://www.w3.org/2000/svg">
<path d="M116.492 232.527C118.223 167 169.54 113.556 234.943 109.167L629.576 82.6816C713.743 77.0328 779.926 153.497 762.266 235.984L660.182 712.802C647.336 772.805 593.426 815.041 532.092 813.154L227.892 803.799C157.999 801.649 102.993 743.405 104.84 673.504L116.492 232.527Z" fill="#D6F7FF"/>
<path fill-rule="evenodd" clip-rule="evenodd" d="M511.656 352.35C501.467 331.492 480.045 317.124 455.267 317.124C420.627 317.124 392.545 345.205 392.545 379.845L392.546 379.924C359.381 381.578 333 408.991 333 442.566C333 477.206 361.081 505.287 395.721 505.287C402.191 505.287 408.433 504.308 414.305 502.488C425.801 516.782 443.435 525.93 463.206 525.93C494.198 525.93 519.941 503.451 525.018 473.908C527.4 474.183 529.823 474.324 532.279 474.324C566.919 474.324 595 446.242 595 411.602C595 376.963 566.919 348.881 532.279 348.881C525.054 348.881 518.115 350.103 511.656 352.35Z" fill="#F8F3F3"/>
<path fill-rule="evenodd" clip-rule="evenodd" d="M590.924 328.727C583.457 313.441 567.758 302.912 549.6 302.912C524.215 302.912 503.636 323.49 503.636 348.875L503.636 348.933C479.333 350.145 460 370.234 460 394.839C460 420.224 480.579 440.802 505.964 440.802C510.705 440.802 515.279 440.085 519.582 438.751C528.007 449.226 540.93 455.93 555.418 455.93C578.13 455.93 596.995 439.457 600.716 417.807C602.461 418.008 604.237 418.112 606.036 418.112C631.421 418.112 652 397.533 652 372.148C652 346.763 631.421 326.184 606.036 326.184C600.742 326.184 595.657 327.079 590.924 328.727Z" fill="#F8F3F3"/>
<path fill-rule="evenodd" clip-rule="evenodd" d="M647.927 443.993C672.231 442.781 691.564 422.692 691.564 398.087C691.564 372.702 670.985 352.124 645.6 352.124C620.215 352.124 599.636 372.702 599.636 398.087C599.636 398.107 599.636 398.126 599.636 398.145C575.333 399.357 556 419.446 556 444.051C556 469.436 576.579 490.015 601.964 490.015C627.349 490.015 647.927 469.436 647.927 444.051C647.927 444.032 647.927 444.012 647.927 443.993Z" fill="#F8F3F3"/>
<path d="M85.9129 340.338L48.6889 397.394L159.663 508.369L216.719 471.144L85.9129 340.338Z" fill="#F0DCA7"/>
<path d="M114.54 174.215L17.1529 271.602L94.9309 296.377L222.32 168.988L114.54 174.215Z" fill="#EDD698"/>
<path d="M285.454 539.904L382.842 442.517L388.07 334.73L260.679 462.12L285.454 539.904Z" fill="#F0DCA7"/>
<path d="M62.2842 439.269L33.9995 410.984L2.87843e-06 444.984L28.2847 473.268L62.2842 439.269Z" fill="#FFB655"/>
<path d="M83.7851 528.777L112.07 557.062L146.069 523.063L117.785 494.778L83.7851 528.777Z" fill="#FF9811"/>
<path d="M75.14 452.132L25.0179 502.254L53.3019 530.538L103.424 480.416L75.14 452.132Z" fill="#FFB655"/>
<path d="M477.212 91.4936L474.016 83.0366L403.829 153.224C423.359 172.754 423.352 204.412 403.829 223.935C384.299 243.465 352.649 243.465 333.118 223.935L151.314 405.739L234.187 488.612L434.927 287.871C486.277 236.522 502.873 159.44 477.212 91.4936Z" fill="#924A16"/>
<path d="M403.829 223.935C423.352 204.412 423.359 172.755 403.829 153.224L333.118 223.935C352.648 243.465 384.299 243.465 403.829 223.935Z" fill="#96C8EF"/>
<path d="M333.118 223.935C313.595 204.412 313.588 172.755 333.118 153.224C352.641 133.701 384.306 133.701 403.829 153.224L474.016 83.0366L465.566 79.8476C444.601 71.9206 422.56 67.9116 400.074 67.9116C350.633 67.9116 304.148 87.1586 269.189 122.119L68.4409 322.866L151.314 405.739L333.118 223.935Z" fill="#CE921E"/>
<path d="M333.118 153.224C313.588 172.754 313.595 204.412 333.118 223.935L403.829 153.224C384.306 133.701 352.641 133.701 333.118 153.224Z" fill="#D1E7F8"/>
<path fill-rule="evenodd" clip-rule="evenodd" d="M371.025 447.493C358.191 421.221 331.209 403.124 300 403.124C256.37 403.124 221 438.493 221 482.124L221 482.223C179.228 484.306 146 518.835 146 561.124C146 604.754 181.37 640.124 225 640.124C233.149 640.124 241.011 638.89 248.407 636.598C262.887 654.602 285.098 666.124 310 666.124C349.036 666.124 381.46 637.811 387.855 600.6C390.855 600.946 393.907 601.124 397 601.124C440.63 601.124 476 565.754 476 522.124C476 478.493 440.63 443.124 397 443.124C387.9 443.124 379.16 444.662 371.025 447.493Z" fill="white"/>
<path fill-rule="evenodd" clip-rule="evenodd" d="M519.346 539.185C549.841 537.664 574.099 512.457 574.099 481.585C574.099 449.733 548.278 423.912 516.426 423.912C484.574 423.912 458.753 449.733 458.753 481.585C458.753 481.609 458.753 481.633 458.753 481.657C428.258 483.178 404 508.385 404 539.258C404 571.109 429.821 596.931 461.673 596.931C493.525 596.931 519.346 571.109 519.346 539.258C519.346 539.233 519.346 539.209 519.346 539.185Z" fill="white"/>
<path fill-rule="evenodd" clip-rule="evenodd" d="M428.761 526.357C423.361 528.03 417.622 528.931 411.673 528.931C379.821 528.931 354 503.109 354 471.258C354 439.406 379.821 413.585 411.673 413.585C429.852 413.585 446.067 421.996 456.638 435.139C462.038 433.466 467.777 432.566 473.726 432.566C505.578 432.566 531.399 458.387 531.399 490.239C531.399 522.09 505.578 547.912 473.726 547.912C455.547 547.912 439.332 539.5 428.761 526.357Z" fill="white"/>
<path d="M546.502 675.809C542.774 675.809 539.753 678.831 539.753 682.557V821.163C539.753 824.89 542.775 827.911 546.502 827.911C550.229 827.911 553.25 824.89 553.25 821.163V682.557C553.251 678.83 550.229 675.809 546.502 675.809Z" fill="#1D1D1F"/>
<path d="M568.289 683.155L552.335 655.729C551.127 653.652 548.905 652.374 546.502 652.374C544.099 652.374 541.877 653.652 540.669 655.729L524.546 683.445C523.332 685.533 523.325 688.11 524.53 690.203C525.734 692.297 527.964 693.587 530.379 693.587H562.624C562.627 693.587 562.63 693.587 562.633 693.587C566.36 693.587 569.381 690.565 569.381 686.839C569.382 685.48 568.98 684.215 568.289 683.155Z" fill="#C3A534"/>
<path d="M458.77 663.661C455.043 663.661 452.022 666.683 452.022 670.41V786.186C452.022 789.914 455.043 792.935 458.77 792.935C462.497 792.935 465.519 789.913 465.519 786.186V670.41C465.519 666.683 462.497 663.661 458.77 663.661Z" fill="#2D2E30"/>
<path d="M585.869 544.647C575.494 530.726 561.513 523.059 546.502 523.059C531.49 523.059 517.51 530.726 507.134 544.647C497.202 557.974 491.732 575.586 491.732 594.24C491.732 612.893 497.202 630.506 507.134 643.833C517.509 657.754 531.49 665.42 546.502 665.42C561.513 665.42 575.494 657.753 585.869 643.833C595.802 630.506 601.272 612.893 601.272 594.24C601.272 575.586 595.801 557.973 585.869 544.647Z" fill="#E5BF2B"/>
<path d="M480.557 671.008L464.603 643.582C463.395 641.505 461.173 640.227 458.77 640.227C456.367 640.227 454.145 641.504 452.937 643.582L436.814 671.298C435.6 673.386 435.593 675.963 436.798 678.056C438.002 680.15 440.232 681.44 442.647 681.44H474.892C474.895 681.44 474.898 681.44 474.901 681.44C478.628 681.44 481.649 678.419 481.649 674.692C481.65 673.332 481.248 672.067 480.557 671.008Z" fill="#9D2217"/>
<path d="M498.137 532.499C487.762 518.578 473.781 510.911 458.77 510.911C443.759 510.911 429.778 518.578 419.403 532.499C409.47 545.826 404 563.439 404 582.093C404 600.747 409.47 618.359 419.403 631.686C429.778 645.607 443.759 653.273 458.77 653.273C473.781 653.273 487.762 645.607 498.138 631.686C508.07 618.359 513.54 600.746 513.54 582.093C513.54 563.439 508.069 545.826 498.137 532.499Z" fill="#DE3205"/>
<path d="M498.137 532.499C487.763 518.58 473.784 510.913 458.774 510.911V653.273C473.784 653.272 487.763 645.605 498.137 631.686C508.07 618.359 513.54 600.746 513.54 582.093C513.54 563.439 508.069 545.826 498.137 532.499Z" fill="#BF2717"/>
<path d="M585.869 544.647C575.495 530.728 561.516 523.061 546.506 523.059V665.421C561.516 665.42 575.495 657.753 585.869 643.834C595.802 630.506 601.272 612.894 601.272 594.24C601.272 575.587 595.801 557.973 585.869 544.647Z" fill="#C7A510"/>
</svg>
