<svg width="388" height="70" viewBox="0 0 388 70" fill="none" xmlns="http://www.w3.org/2000/svg">
<path d="M0.528 69V0.839996H29.616C32.88 0.839996 35.856 1.512 38.544 2.856C41.296 4.2 43.632 5.96 45.552 8.136C47.536 10.312 49.072 12.776 50.16 15.528C51.312 18.28 51.888 21.064 51.888 23.88C51.888 26.888 51.344 29.768 50.256 32.52C49.232 35.272 47.76 37.736 45.84 39.912C43.984 42.088 41.712 43.816 39.024 45.096C36.336 46.376 33.36 47.016 30.096 47.016H16.272V69H0.528ZM16.272 33.288H29.136C30.992 33.288 32.592 32.488 33.936 30.888C35.28 29.288 35.952 26.952 35.952 23.88C35.952 22.28 35.728 20.904 35.28 19.752C34.896 18.6 34.352 17.64 33.648 16.872C32.944 16.104 32.144 15.56 31.248 15.24C30.352 14.856 29.456 14.664 28.56 14.664H16.272V33.288ZM60.3405 69V0.839996H91.0605C94.2605 0.839996 97.2045 1.512 99.8925 2.856C102.645 4.2 105.013 5.96 106.997 8.136C108.981 10.312 110.517 12.776 111.605 15.528C112.757 18.28 113.333 21.064 113.333 23.88C113.333 25.992 113.077 28.04 112.565 30.024C112.053 31.944 111.317 33.768 110.357 35.496C109.397 37.224 108.213 38.792 106.805 40.2C105.461 41.544 103.925 42.696 102.197 43.656L117.173 69H99.4125L86.3565 47.016H76.0845V69H60.3405ZM76.0845 33.288H90.4845C92.3405 33.288 93.9405 32.424 95.2845 30.696C96.6285 28.904 97.3005 26.632 97.3005 23.88C97.3005 21.064 96.5325 18.824 94.9965 17.16C93.4605 15.496 91.7965 14.664 90.0045 14.664H76.0845V33.288ZM154.509 69.576C149.453 69.576 144.845 68.584 140.685 66.6C136.525 64.616 132.973 62.024 130.029 58.824C127.085 55.56 124.781 51.848 123.117 47.688C121.517 43.528 120.717 39.24 120.717 34.824C120.717 30.344 121.549 26.024 123.213 21.864C124.941 17.704 127.309 14.056 130.317 10.92C133.389 7.72 137.005 5.192 141.165 3.336C145.325 1.416 149.869 0.455996 154.797 0.455996C159.853 0.455996 164.461 1.448 168.621 3.432C172.781 5.416 176.333 8.04 179.277 11.304C182.221 14.568 184.493 18.28 186.093 22.44C187.693 26.6 188.493 30.824 188.493 35.112C188.493 39.592 187.629 43.912 185.901 48.072C184.237 52.232 181.901 55.912 178.893 59.112C175.885 62.248 172.301 64.776 168.141 66.696C163.981 68.616 159.437 69.576 154.509 69.576ZM136.749 35.016C136.749 37.64 137.133 40.2 137.901 42.696C138.669 45.128 139.789 47.304 141.261 49.224C142.797 51.144 144.685 52.68 146.925 53.832C149.165 54.984 151.725 55.56 154.605 55.56C157.613 55.56 160.237 54.952 162.477 53.736C164.717 52.52 166.573 50.952 168.045 49.032C169.517 47.048 170.605 44.84 171.309 42.408C172.077 39.912 172.461 37.384 172.461 34.824C172.461 32.2 172.077 29.672 171.309 27.24C170.541 24.744 169.389 22.568 167.853 20.712C166.317 18.792 164.429 17.288 162.189 16.2C160.013 15.048 157.485 14.472 154.605 14.472C151.597 14.472 148.973 15.08 146.733 16.296C144.557 17.448 142.701 18.984 141.165 20.904C139.693 22.824 138.573 25.032 137.805 27.528C137.101 29.96 136.749 32.456 136.749 35.016ZM226.871 55.56C229.559 55.56 231.831 55.016 233.687 53.928C235.543 52.776 237.047 51.272 238.199 49.416C239.351 47.56 240.151 45.448 240.599 43.08C241.111 40.648 241.367 38.184 241.367 35.688V0.839996H257.111V35.688C257.111 40.424 256.503 44.84 255.287 48.936C254.135 53.032 252.311 56.616 249.815 59.688C247.383 62.76 244.247 65.192 240.406 66.984C236.631 68.712 232.119 69.576 226.871 69.576C221.431 69.576 216.791 68.648 212.951 66.792C209.111 64.936 205.975 62.472 203.543 59.4C201.175 56.264 199.415 52.648 198.263 48.552C197.175 44.456 196.631 40.168 196.631 35.688V0.839996H212.375V35.688C212.375 38.312 212.631 40.808 213.143 43.176C213.655 45.544 214.487 47.656 215.639 49.512C216.791 51.368 218.263 52.84 220.055 53.928C221.911 55.016 224.183 55.56 226.871 55.56ZM269.309 69V0.839996H294.749C300.381 0.839996 305.309 1.736 309.533 3.528C313.757 5.32 317.277 7.752 320.093 10.824C322.973 13.896 325.117 17.512 326.525 21.672C327.997 25.768 328.733 30.152 328.733 34.824C328.733 40.008 327.933 44.712 326.333 48.936C324.733 53.096 322.429 56.68 319.421 59.688C316.477 62.632 312.893 64.936 308.669 66.6C304.509 68.2 299.869 69 294.749 69H269.309ZM312.701 34.824C312.701 31.816 312.285 29.096 311.453 26.664C310.685 24.168 309.533 22.024 307.997 20.232C306.461 18.44 304.573 17.064 302.333 16.104C300.093 15.144 297.565 14.664 294.749 14.664H285.053V55.176H294.749C297.629 55.176 300.189 54.664 302.429 53.64C304.669 52.616 306.525 51.208 307.997 49.416C309.533 47.56 310.685 45.416 311.453 42.984C312.285 40.488 312.701 37.768 312.701 34.824ZM378.924 20.808C378.732 20.552 378.06 20.072 376.908 19.368C375.756 18.664 374.316 17.928 372.588 17.16C370.86 16.392 368.972 15.72 366.924 15.144C364.876 14.568 362.828 14.28 360.78 14.28C355.148 14.28 352.332 16.168 352.332 19.944C352.332 21.096 352.62 22.056 353.196 22.824C353.836 23.592 354.732 24.296 355.884 24.936C357.1 25.512 358.604 26.056 360.396 26.568C362.188 27.08 364.268 27.656 366.636 28.296C369.9 29.192 372.844 30.184 375.468 31.272C378.092 32.296 380.3 33.608 382.092 35.208C383.948 36.744 385.356 38.632 386.316 40.872C387.34 43.112 387.852 45.8 387.852 48.936C387.852 52.776 387.116 56.04 385.644 58.728C384.236 61.352 382.348 63.496 379.98 65.16C377.612 66.76 374.892 67.944 371.82 68.712C368.748 69.416 365.58 69.768 362.316 69.768C359.82 69.768 357.26 69.576 354.636 69.192C352.012 68.808 349.452 68.264 346.956 67.56C344.46 66.792 342.028 65.896 339.66 64.872C337.356 63.848 335.212 62.664 333.228 61.32L340.14 47.592C340.396 47.912 341.228 48.52 342.636 49.416C344.044 50.312 345.772 51.208 347.82 52.104C349.932 53 352.268 53.8 354.828 54.504C357.388 55.208 359.98 55.56 362.604 55.56C368.172 55.56 370.956 53.864 370.956 50.472C370.956 49.192 370.54 48.136 369.708 47.304C368.876 46.472 367.724 45.736 366.252 45.096C364.78 44.392 363.02 43.752 360.972 43.176C358.988 42.6 356.812 41.96 354.444 41.256C351.308 40.296 348.588 39.272 346.284 38.184C343.98 37.032 342.06 35.72 340.524 34.248C339.052 32.776 337.932 31.08 337.164 29.16C336.46 27.24 336.108 25 336.108 22.44C336.108 18.856 336.78 15.688 338.124 12.936C339.468 10.184 341.292 7.88 343.596 6.024C345.9 4.104 348.556 2.664 351.564 1.704C354.636 0.743998 357.868 0.263998 361.26 0.263998C363.628 0.263998 365.964 0.487997 368.268 0.935995C370.572 1.384 372.78 1.96 374.892 2.664C377.004 3.368 378.956 4.168 380.748 5.064C382.604 5.96 384.3 6.856 385.836 7.752L378.924 20.808Z" fill="url(#paint0_linear)"/>
<defs>
<linearGradient id="paint0_linear" x1="-6" y1="9.00001" x2="391" y2="69" gradientUnits="userSpaceOnUse">
<stop stop-color="#FF0000"/>
<stop offset="0.495276" stop-color="#FFA800"/>
<stop offset="0.953125" stop-color="#999279"/>
</linearGradient>
</defs>
</svg>
